<?xml version="1.0" encoding="UTF-8" standalone="no"?>
<!-- Generator: Adobe Illustrator 16.0.0, SVG Export Plug-In . SVG Version: 6.00 Build 0)  -->

<svg
   xmlns:dc="http://purl.org/dc/elements/1.1/"
   xmlns:cc="http://creativecommons.org/ns#"
   xmlns:rdf="http://www.w3.org/1999/02/22-rdf-syntax-ns#"
   xmlns:svg="http://www.w3.org/2000/svg"
   xmlns="http://www.w3.org/2000/svg"
   xmlns:sodipodi="http://sodipodi.sourceforge.net/DTD/sodipodi-0.dtd"
   xmlns:inkscape="http://www.inkscape.org/namespaces/inkscape"
   version="1.1"
   id="Layer_1"
   x="0px"
   y="0px"
   width="960"
   height="960"
   viewBox="0 0 960 960"
   enable-background="new 0 0 960 560"
   xml:space="preserve"
   sodipodi:docname="codium-black-square.svg"
   inkscape:version="0.92.3 (2405546, 2018-03-11)"><metadata
   id="metadata3799"><rdf:RDF><cc:Work
       rdf:about=""><dc:format>image/svg+xml</dc:format><dc:type
         rdf:resource="http://purl.org/dc/dcmitype/StillImage" /><dc:title></dc:title></cc:Work></rdf:RDF></metadata><defs
   id="defs3797" /><sodipodi:namedview
   pagecolor="#ffffff"
   bordercolor="#666666"
   borderopacity="1"
   objecttolerance="10"
   gridtolerance="10"
   guidetolerance="10"
   inkscape:pageopacity="0"
   inkscape:pageshadow="2"
   inkscape:window-width="1920"
   inkscape:window-height="1052"
   id="namedview3795"
   showgrid="false"
   inkscape:snap-page="false"
   inkscape:zoom="0.56000332"
   inkscape:cx="83.840209"
   inkscape:cy="437.9476"
   inkscape:window-x="1680"
   inkscape:window-y="0"
   inkscape:window-maximized="1"
   inkscape:current-layer="Layer_1" />
<g
   id="g3792"
   transform="matrix(1.4195224,0,0,1.4195224,-202.36155,459.13787)">
	<g
   id="g3780">
		<path
   d="m 304.431,236.947 c 13.345,-2.029 25.405,-0.213 34.469,10.877 3.745,4.583 6.125,11.581 5.631,16.934 -1.187,-0.672 -2.297,-1.052 -3.076,-1.785 -5.735,-5.398 -12.263,-9.405 -20.001,-11.095 -12.513,-2.733 -23.903,0.192 -34.188,7.533 -10.968,7.831 -17.785,18.497 -20.377,31.694 -1.343,6.818 -1.131,13.712 0.478,20.534 0.273,1.162 0.037,2.446 0.037,3.672 -0.357,0.126 -0.716,0.252 -1.071,0.377 -1.871,-3.038 -3.922,-5.984 -5.576,-9.137 -3.615,-6.89 -5.55,-14.246 -6.109,-22.054 -0.714,-9.918 0.543,-19.51 4.387,-28.627 7.625,-18.091 21.354,-28.99 40.498,-32.827 11.49,-2.304 22.93,-1.721 33.892,2.9 14.683,6.192 25.758,16.221 31.785,31.163 2.649,6.567 3.903,13.505 2.588,20.677 -0.284,1.544 -0.303,3.134 -0.551,4.686 -0.06,0.382 -0.544,0.696 -1.212,1.491 0.191,-22.441 -10.009,-37.732 -29.319,-47.118 -10.778,-5.239 -24.153,-4.431 -32.285,0.105 z"
   id="path3776"
   inkscape:connector-curvature="0"
   style="clip-rule:evenodd;fill:#0ba1f4;fill-rule:evenodd" />
		<path
   d="m 324.031,265.702 c -3.564,1.11 -6.754,1.967 -9.848,3.094 -9.301,3.386 -15.315,13.145 -13.013,23.686 2.517,11.524 9.595,18.896 20.371,22.997 14.741,5.609 27.271,1.844 37.758,-9.41 4.443,-4.765 7.444,-10.471 9.038,-16.855 0.355,-1.422 0.865,-2.808 1.749,-4.286 0.063,0.71 0.271,1.44 0.166,2.123 -1.475,9.394 -4.168,18.53 -9.841,26.14 -7.6,10.194 -16.572,19.106 -29.129,23.309 -7.408,2.479 -14.946,3.679 -22.76,2.352 -6.417,-1.091 -12.372,-3.313 -17.927,-6.733 -7.64,-4.707 -11.38,-11.89 -12.746,-20.365 -1.832,-11.367 0.625,-21.96 7.261,-31.374 5.687,-8.067 13.497,-12.696 23.319,-14.717 4.952,-1.019 9.584,-0.93 14.395,-0.297 0.278,0.034 0.545,0.148 1.207,0.336 z"
   id="path3778"
   inkscape:connector-curvature="0"
   style="clip-rule:evenodd;fill-rule:evenodd" />
	</g>
	<path
   d="m 241.723,325.737 c -0.467,1.707 -0.932,4.347 -1.087,5.277 -0.311,2.174 -2.173,3.415 -3.726,3.881 -6.054,1.708 -16.611,4.036 -32.29,4.036 -26.7,0 -58.523,-14.902 -58.523,-57.901 0,-31.358 24.217,-55.729 54.953,-55.729 27.787,0 34.151,5.433 38.188,5.433 1.552,0 1.863,-0.776 3.104,-0.776 0.776,0 0.776,0.932 0.776,1.708 -0.155,2.173 -0.931,6.209 -0.931,8.228 0,2.328 0.466,6.519 0.466,10.09 0,3.104 -0.311,5.744 -1.863,5.744 -3.104,0 -1.397,-4.968 -3.416,-8.538 -2.018,-3.571 -9.002,-15.834 -36.324,-15.834 -22.354,0 -35.394,20.802 -35.394,44.553 0,38.343 19.249,57.126 44.397,57.126 9.469,0 16.765,-3.104 23.286,-7.451 2.949,-2.019 6.053,-8.384 6.674,-10.712 0.776,-2.639 0,-4.812 1.863,-4.812 1.863,0 1.863,3.26 1.863,4.191 0.002,2.018 -1.085,7.45 -2.016,11.486 z"
   id="path3782"
   inkscape:connector-curvature="0" />
	<path
   d="m 433.434,337.689 c -11.953,0 -20.49,-1.241 -30.115,-1.241 -8.538,0 -18.008,0.621 -21.112,0.621 -2.328,0 -3.104,-0.621 -3.104,-1.862 0,-1.088 3.726,-1.397 5.589,-1.708 1.863,-0.311 6.054,-0.622 7.451,-2.95 2.019,-3.259 2.174,-6.829 2.174,-18.473 V 241.6 c 0,-9.935 -4.657,-11.333 -12.109,-11.333 -1.396,0 -2.018,-0.31 -2.018,-1.396 0,-0.621 1.242,-1.708 4.346,-1.708 2.795,0 14.126,0.621 18.163,0.621 9.314,0 17.386,-1.086 33.375,-1.086 32.6,0 55.108,19.094 55.108,53.09 -0.001,38.187 -22.2,57.901 -57.748,57.901 z M 425.827,231.82 c -3.726,0 -7.917,0.466 -7.917,0.466 -3.881,0 -5.899,1.863 -5.899,6.054 v 70.787 c 0,10.712 0.621,17.387 4.347,20.336 3.104,2.484 8.228,2.95 16.921,2.95 20.18,0 40.205,-13.04 40.205,-48.278 -10e-4,-28.874 -19.249,-52.315 -47.657,-52.315 z"
   id="path3784"
   inkscape:connector-curvature="0" />
	<path
   d="m 543.959,337.069 c -1.241,0 -13.351,-0.621 -20.646,-0.621 -10.4,0 -18.783,0.775 -20.181,0.775 -2.018,0 -2.794,-0.775 -2.794,-1.706 0,-2.174 7.606,-1.242 10.556,-3.416 2.484,-1.863 3.571,-6.52 3.571,-15.058 V 242.22 c 0,-6.52 -0.776,-9.314 -3.416,-10.711 -3.726,-2.018 -8.227,-1.552 -8.227,-3.104 0,-1.397 2.173,-1.397 3.414,-1.397 0.933,0 12.885,0.776 16.922,0.776 4.035,0 15.367,-1.086 17.696,-1.086 3.104,0 3.726,0.931 3.726,1.708 0,1.242 -6.364,1.397 -9.004,2.949 -3.415,2.018 -3.415,8.228 -3.415,11.332 v 70.478 c 0,17.541 1.087,19.559 12.108,20.955 1.241,0.156 2.018,0.776 2.018,1.398 0,1.086 -1.241,1.551 -2.328,1.551 z"
   id="path3786"
   inkscape:connector-curvature="0" />
	<path
   d="m 665.815,231.044 c -4.968,2.328 -4.657,8.693 -4.657,20.801 v 39.275 c 0,30.115 -16.3,47.812 -45.794,47.812 -27.321,0 -45.173,-14.126 -45.173,-40.05 v -47.037 c 0,-9.313 0,-17.075 -1.552,-18.938 -2.64,-3.104 -10.091,-2.949 -10.091,-4.501 0,-1.086 0.466,-1.397 2.795,-1.397 3.725,0 11.486,0.776 18.317,0.776 8.227,0 17.075,-0.776 18.628,-0.776 2.173,0 3.104,0.311 3.104,1.552 0,1.397 -6.521,1.242 -8.692,2.33 -3.105,1.552 -5.278,1.086 -5.125,23.44 l 0.312,40.515 c 0.155,17.387 5.122,37.412 27.477,37.412 19.249,0 37.566,-10.556 37.566,-37.412 v -33.53 c 0,-17.697 -0.931,-26.235 -3.415,-28.097 -4.657,-3.57 -11.487,-2.95 -11.487,-4.813 0,-1.242 1.242,-1.242 3.415,-1.242 1.553,0 9.625,0.621 15.522,0.621 5.9,0 11.799,-0.776 13.041,-0.776 2.794,0 4.036,0.311 4.036,1.397 10e-4,1.707 -3.569,0.465 -8.227,2.638 z"
   id="path3788"
   inkscape:connector-curvature="0" />
	<path
   d="m 808.627,336.914 c -2.793,0 -7.45,-0.466 -17.695,-0.466 -5.744,0 -5.899,0.466 -12.419,0.466 -4.347,0 -6.985,0 -6.985,-1.396 0,-0.933 2.018,-1.708 4.656,-1.864 7.142,-0.62 7.451,-8.071 7.451,-13.971 0,-2.948 -0.154,-6.675 -0.775,-11.487 l -4.658,-40.516 c -0.154,-1.087 -0.464,-1.242 -0.775,-1.242 -0.311,0 -0.775,0.466 -1.242,1.552 l -31.046,65.043 c -1.397,2.794 -2.329,4.036 -3.26,4.036 -0.932,0 -1.863,-1.242 -3.261,-4.036 l -33.22,-65.665 c -0.311,-0.776 -0.62,-1.086 -0.931,-1.086 -0.466,0 -0.776,0.776 -0.932,2.329 l -4.657,41.136 c -0.466,4.347 -0.932,10.868 -0.932,13.196 0,4.967 0.932,8.228 2.795,9.313 3.726,2.328 9.779,1.862 9.779,3.261 0,1.242 -0.932,1.552 -3.26,1.552 -1.554,0 -11.953,-0.621 -15.368,-0.621 -3.415,0 -12.108,0.621 -13.662,0.621 -2.172,0 -3.414,0 -3.414,-1.708 0,-1.086 4.657,-1.086 7.142,-2.794 5.122,-3.57 5.588,-8.848 6.364,-15.989 l 10.245,-88.794 c 0.311,-2.173 0.932,-3.104 1.862,-3.104 1.088,0 2.329,1.242 3.261,3.104 l 36.945,72.96 c 2.328,4.658 3.57,6.831 4.657,6.831 1.242,0 2.327,-2.173 4.812,-7.142 l 35.704,-74.357 c 0.466,-1.086 1.553,-2.018 2.483,-2.018 1.087,0 2.019,1.086 2.328,3.725 l 11.333,87.862 c 0.776,5.744 0.932,14.438 6.054,17.23 3.105,1.708 6.364,0.776 6.364,2.641 10e-4,1.244 -2.327,1.398 -5.743,1.398 z"
   id="path3790"
   inkscape:connector-curvature="0" />
</g>
<g
   transform="matrix(4.5462505,0,0,4.5462505,-1652.6963,-890.26234)"
   id="g6"><path
     style="clip-rule:evenodd;fill:#0ba1f4;fill-rule:evenodd"
     inkscape:connector-curvature="0"
     d="m 457.902,219.154 c 18.789,-2.856 35.769,-0.3 48.529,15.315 5.274,6.453 8.623,16.306 7.928,23.841 -1.669,-0.946 -3.233,-1.48 -4.33,-2.512 -8.074,-7.601 -17.265,-13.241 -28.159,-15.621 -17.618,-3.848 -33.654,0.27 -48.134,10.606 -15.442,11.025 -25.041,26.042 -28.69,44.624 -1.89,9.6 -1.592,19.305 0.673,28.91 0.384,1.636 0.052,3.444 0.052,5.17 -0.502,0.177 -1.008,0.354 -1.508,0.531 -2.634,-4.278 -5.521,-8.426 -7.85,-12.864 -5.09,-9.7 -7.814,-20.059 -8.601,-31.05 -1.005,-13.965 0.765,-27.469 6.177,-40.305 10.735,-25.472 30.066,-40.815 57.018,-46.218 16.178,-3.245 32.284,-2.424 47.718,4.083 20.673,8.718 36.266,22.838 44.751,43.875 3.729,9.246 5.495,19.015 3.645,29.112 -0.4,2.174 -0.427,4.413 -0.776,6.597 -0.085,0.537 -0.768,0.98 -1.707,2.1 0.269,-31.596 -14.094,-53.125 -41.279,-66.339 -15.175,-7.38 -34.007,-6.241 -45.457,0.145 z"
     id="path2" /><path
     style="clip-rule:evenodd;fill-rule:evenodd"
     inkscape:connector-curvature="0"
     d="m 485.498,259.639 c -5.018,1.564 -9.51,2.77 -13.865,4.356 -13.095,4.768 -21.563,18.507 -18.321,33.348 3.543,16.226 13.509,26.605 28.681,32.378 20.754,7.898 38.397,2.597 53.16,-13.248 6.257,-6.709 10.48,-14.742 12.726,-23.731 0.501,-2.003 1.217,-3.953 2.463,-6.035 0.087,1 0.382,2.028 0.233,2.989 -2.077,13.226 -5.868,26.09 -13.856,36.803 -10.699,14.354 -23.333,26.9 -41.012,32.817 -10.432,3.489 -21.043,5.179 -32.044,3.311 -9.035,-1.535 -17.419,-4.664 -25.24,-9.48 -10.757,-6.626 -16.022,-16.739 -17.945,-28.673 -2.579,-16.004 0.88,-30.917 10.223,-44.171 8.007,-11.357 19.003,-17.875 32.832,-20.721 6.972,-1.434 13.494,-1.31 20.267,-0.418 0.389,0.05 0.767,0.21 1.698,0.475 z"
     id="path4" /></g></svg>