<?xml version="1.0" encoding="UTF-8" standalone="no"?>
<!-- Created with Inkscape (http://www.inkscape.org/) -->

<svg
   xmlns:dc="http://purl.org/dc/elements/1.1/"
   xmlns:cc="http://creativecommons.org/ns#"
   xmlns:rdf="http://www.w3.org/1999/02/22-rdf-syntax-ns#"
   xmlns:svg="http://www.w3.org/2000/svg"
   xmlns="http://www.w3.org/2000/svg"
   xmlns:xlink="http://www.w3.org/1999/xlink"
   xmlns:sodipodi="http://sodipodi.sourceforge.net/DTD/sodipodi-0.dtd"
   xmlns:inkscape="http://www.inkscape.org/namespaces/inkscape"
   width="213.2354mm"
   height="202.57634mm"
   viewBox="0 0 213.2354 202.57634"
   version="1.1"
   id="svg8"
   inkscape:version="0.92.4 (33fec40, 2019-01-16)"
   sodipodi:docname="logotipo_vertical.svg">
  <defs
     id="defs2">
    <clipPath
       id="clipPath19298-68-9-0"
       clipPathUnits="userSpaceOnUse">
      <path
         inkscape:connector-curvature="0"
         id="path19296-07-3-2"
         d="M 0,3330.786 H 1536 V 0 H 0 Z" />
    </clipPath>
    <clipPath
       id="clipPath19298-68-9"
       clipPathUnits="userSpaceOnUse">
      <path
         inkscape:connector-curvature="0"
         id="path19296-07-3"
         d="M 0,3330.786 H 1536 V 0 H 0 Z" />
    </clipPath>
    <clipPath
       id="clipPath19378-68"
       clipPathUnits="userSpaceOnUse">
      <path
         inkscape:connector-curvature="0"
         id="path19376-16"
         d="M 0,3330.786 H 1536 V 0 H 0 Z" />
    </clipPath>
    <linearGradient
       id="linearGradient19368"
       spreadMethod="pad"
       gradientTransform="matrix(-7.4416304,16.399149,16.399149,7.4416304,723.62769,66.051506)"
       gradientUnits="userSpaceOnUse"
       y2="0"
       x2="1"
       y1="0"
       x1="0">
      <stop
         id="stop19364"
         offset="0"
         style="stop-opacity:1;stop-color:#3193a1" />
      <stop
         id="stop19366"
         offset="1"
         style="stop-opacity:1;stop-color:#05707e" />
    </linearGradient>
    <linearGradient
       id="linearGradient19348"
       spreadMethod="pad"
       gradientTransform="matrix(8.1306467,16.812523,16.812523,-8.1306467,642.90527,65.324791)"
       gradientUnits="userSpaceOnUse"
       y2="0"
       x2="1"
       y1="0"
       x1="0">
      <stop
         id="stop19344"
         offset="0"
         style="stop-opacity:1;stop-color:#3193a1" />
      <stop
         id="stop19346"
         offset="1"
         style="stop-opacity:1;stop-color:#05707e" />
    </linearGradient>
    <clipPath
       id="clipPath19298-82"
       clipPathUnits="userSpaceOnUse">
      <path
         inkscape:connector-curvature="0"
         id="path19296-5"
         d="M 0,3330.786 H 1536 V 0 H 0 Z" />
    </clipPath>
    <clipPath
       id="clipPath19378-68-0"
       clipPathUnits="userSpaceOnUse">
      <path
         inkscape:connector-curvature="0"
         id="path19376-16-4"
         d="M 0,3330.786 H 1536 V 0 H 0 Z" />
    </clipPath>
    <linearGradient
       inkscape:collect="always"
       xlink:href="#linearGradient19368"
       id="linearGradient4884"
       gradientUnits="userSpaceOnUse"
       gradientTransform="matrix(-7.4416304,16.399149,16.399149,7.4416304,723.62769,66.051506)"
       x1="0"
       y1="0"
       x2="1"
       y2="0"
       spreadMethod="pad" />
    <linearGradient
       inkscape:collect="always"
       xlink:href="#linearGradient19348"
       id="linearGradient4882"
       gradientUnits="userSpaceOnUse"
       gradientTransform="matrix(8.1306467,16.812523,16.812523,-8.1306467,642.90527,65.324791)"
       x1="0"
       y1="0"
       x2="1"
       y2="0"
       spreadMethod="pad" />
    <clipPath
       id="clipPath19298-82-7"
       clipPathUnits="userSpaceOnUse">
      <path
         inkscape:connector-curvature="0"
         id="path19296-5-0"
         d="M 0,3330.786 H 1536 V 0 H 0 Z" />
    </clipPath>
  </defs>
  <sodipodi:namedview
     id="base"
     pagecolor="#ffffff"
     bordercolor="#666666"
     borderopacity="1.0"
     inkscape:pageopacity="0.0"
     inkscape:pageshadow="2"
     inkscape:zoom="0.35"
     inkscape:cx="-66.214886"
     inkscape:cy="411.31949"
     inkscape:document-units="mm"
     inkscape:current-layer="layer1"
     showgrid="false"
     inkscape:window-width="1853"
     inkscape:window-height="1025"
     inkscape:window-x="67"
     inkscape:window-y="1107"
     inkscape:window-maximized="1" />
  <metadata
     id="metadata5">
    <rdf:RDF>
      <cc:Work
         rdf:about="">
        <dc:format>image/svg+xml</dc:format>
        <dc:type
           rdf:resource="http://purl.org/dc/dcmitype/StillImage" />
        <dc:title></dc:title>
      </cc:Work>
    </rdf:RDF>
  </metadata>
  <g
     inkscape:label="Capa 1"
     inkscape:groupmode="layer"
     id="layer1"
     transform="translate(52.78422,-24.847182)">
    <g
       id="g19292-3-8"
       transform="matrix(1.3770857,0,0,-1.3770857,-1097.1934,310.47462)"
       style="fill:#404041;fill-opacity:1">
      <g
         id="g19294-7-6"
         clip-path="url(#clipPath19298-82-7)"
         style="fill:#404041;fill-opacity:1">
        <g
           id="g19300-3-2"
           transform="translate(758.9443,101.654)"
           style="fill:#404041;fill-opacity:1">
          <path
             d="m 0,0 h 2.35 c 0.276,0 0.501,-0.224 0.501,-0.5 v -22.15 c 0,-0.276 0.224,-0.5 0.5,-0.5 h 10.093 c 0.276,0 0.5,-0.225 0.5,-0.501 v -1.811 c 0,-0.277 -0.224,-0.501 -0.5,-0.501 H 0 c -0.276,0 -0.5,0.224 -0.5,0.501 V -0.5 C -0.5,-0.224 -0.276,0 0,0"
             style="fill:#404041;fill-opacity:1;fill-rule:nonzero;stroke:none"
             id="path19302-5-4"
             inkscape:connector-curvature="0" />
        </g>
        <g
           id="g19304-51-7"
           transform="translate(787.2861,86.8239)"
           style="fill:#404041;fill-opacity:1">
          <path
             d="M 0,0 C 0.29,0 0.518,0.243 0.501,0.533 0.386,2.667 -0.676,5.508 -4.188,5.508 -7.329,5.508 -8.853,2.857 -9.294,0.606 -9.355,0.293 -9.122,0 -8.802,0 Z m -8.901,-2.427 c -0.286,0 -0.523,-0.242 -0.503,-0.528 0.285,-4.202 3.115,-5.943 6.372,-5.943 2.101,0 3.48,0.317 4.637,0.752 0.281,0.105 0.589,-0.061 0.659,-0.353 l 0.345,-1.452 c 0.058,-0.245 -0.075,-0.49 -0.309,-0.584 -1.229,-0.49 -3.142,-0.983 -5.795,-0.983 -5.739,0 -9.167,3.775 -9.167,9.399 0,5.624 3.312,10.054 8.744,10.054 6.086,0 7.704,-5.354 7.704,-8.783 0,-0.446 -0.032,-0.829 -0.065,-1.137 C 3.693,-2.239 3.479,-2.427 3.224,-2.427 Z"
             style="fill:#404041;fill-opacity:1;fill-rule:nonzero;stroke:none"
             id="path19306-8-9"
             inkscape:connector-curvature="0" />
        </g>
        <g
           id="g19308-1-3"
           transform="translate(805.0942,84.7087)"
           style="fill:#404041;fill-opacity:1">
          <path
             d="m 0,0 c 0,0.275 -0.221,0.502 -0.496,0.502 -3.567,0.008 -7.4,-0.744 -7.4,-4.204 0,-2.195 1.463,-3.235 3.197,-3.235 2.427,0 3.967,1.54 4.507,3.12 C -0.077,-3.471 0,-3.085 0,-2.738 Z m 0.947,-9.018 c -0.254,0 -0.468,0.191 -0.497,0.444 L 0.231,-6.667 H 0.116 c -1.04,-1.464 -3.043,-2.774 -5.701,-2.774 -3.775,0 -5.701,2.658 -5.701,5.354 0,4.507 4.006,6.972 11.209,6.934 v 0.385 c 0,1.541 -0.423,4.314 -4.237,4.314 -1.523,0 -3.105,-0.416 -4.355,-1.092 C -8.936,6.31 -9.268,6.45 -9.367,6.737 L -9.806,8.01 c -0.077,0.223 0.007,0.476 0.212,0.594 1.519,0.882 3.6,1.446 5.781,1.446 5.701,0 7.087,-3.89 7.087,-7.627 v -6.972 c 0,-1.382 0.057,-2.736 0.217,-3.893 0.042,-0.305 -0.186,-0.576 -0.493,-0.576 z"
             style="fill:#404041;fill-opacity:1;fill-rule:nonzero;stroke:none"
             id="path19310-7-9"
             inkscape:connector-curvature="0" />
        </g>
        <g
           id="g19312-68-2"
           transform="translate(813.8398,89.2893)"
           style="fill:#404041;fill-opacity:1">
          <path
             d="m 0,0 c 0,1.704 -0.03,3.138 -0.117,4.514 -0.018,0.288 0.209,0.532 0.498,0.532 h 2 C 2.645,5.046 2.864,4.84 2.88,4.577 L 3.043,1.964 h 0.078 c 0.924,1.772 3.081,3.506 6.163,3.506 2.581,0 6.587,-1.541 6.587,-7.935 v -10.633 c 0,-0.276 -0.225,-0.5 -0.501,-0.5 h -2.389 c -0.276,0 -0.5,0.224 -0.5,0.5 v 10.247 c 0,3.005 -1.118,5.509 -4.314,5.509 C 5.932,2.658 4.199,1.079 3.621,-0.809 3.467,-1.233 3.39,-1.811 3.39,-2.388 v -10.71 c 0,-0.276 -0.224,-0.5 -0.5,-0.5 H 0.5 c -0.276,0 -0.5,0.224 -0.5,0.5 z"
             style="fill:#404041;fill-opacity:1;fill-rule:nonzero;stroke:none"
             id="path19314-2-8"
             inkscape:connector-curvature="0" />
        </g>
        <g
           id="g19316-4-3"
           transform="translate(857.2153,87.093)"
           style="fill:#404041;fill-opacity:1">
          <path
             d="M 0,0 C -0.192,3.621 -0.424,7.974 -0.385,11.21 H -0.501 C -1.387,8.167 -2.465,4.931 -3.774,1.349 l -4.465,-12.267 c -0.072,-0.198 -0.26,-0.33 -0.47,-0.33 h -1.833 c -0.215,0 -0.405,0.137 -0.475,0.34 L -15.1,1.117 c -1.233,3.66 -2.273,7.011 -3.004,10.093 h -0.078 c -0.076,-3.236 -0.269,-7.589 -0.501,-11.479 l -0.663,-10.663 c -0.017,-0.264 -0.236,-0.47 -0.5,-0.47 h -2.19 c -0.29,0 -0.519,0.246 -0.499,0.535 l 1.74,24.963 c 0.019,0.262 0.236,0.465 0.5,0.465 h 3.455 c 0.212,0 0.401,-0.134 0.471,-0.334 l 4.312,-12.224 c 1.079,-3.196 1.965,-6.047 2.619,-8.744 h 0.116 c 0.655,2.62 1.58,5.47 2.735,8.744 l 4.502,12.23 c 0.072,0.197 0.26,0.328 0.469,0.328 h 3.457 c 0.264,0 0.483,-0.206 0.5,-0.469 L 3.896,-10.87 c 0.018,-0.288 -0.211,-0.532 -0.5,-0.532 H 1.128 c -0.265,0 -0.484,0.207 -0.5,0.472 z"
             style="fill:#404041;fill-opacity:1;fill-rule:nonzero;stroke:none"
             id="path19318-77-0"
             inkscape:connector-curvature="0" />
        </g>
        <g
           id="g19320-3-1"
           transform="translate(866.6553,76.1916)"
           style="fill:#404041;fill-opacity:1">
          <path
             d="m 0,0 v 17.643 c 0,0.276 0.224,0.501 0.5,0.501 h 2.389 c 0.277,0 0.501,-0.225 0.501,-0.501 L 3.39,0 c 0,-0.276 -0.224,-0.5 -0.501,-0.5 H 0.5 C 0.224,-0.5 0,-0.276 0,0 m 3.774,23.382 c 0.039,-1.155 -0.808,-2.08 -2.156,-2.08 -1.194,0 -2.042,0.925 -2.042,2.08 0,1.194 0.886,2.119 2.118,2.119 1.272,0 2.08,-0.925 2.08,-2.119"
             style="fill:#404041;fill-opacity:1;fill-rule:nonzero;stroke:none"
             id="path19322-3-7"
             inkscape:connector-curvature="0" />
        </g>
        <g
           id="g19324-3-8"
           transform="translate(875.6694,89.2893)"
           style="fill:#404041;fill-opacity:1">
          <path
             d="M 0,0 C 0,1.704 -0.03,3.138 -0.118,4.513 -0.136,4.802 0.091,5.046 0.38,5.046 h 2 c 0.264,0 0.483,-0.206 0.499,-0.469 L 3.043,1.964 H 3.12 c 0.924,1.772 3.081,3.506 6.164,3.506 2.58,0 6.586,-1.541 6.586,-7.935 v -10.633 c 0,-0.276 -0.224,-0.5 -0.5,-0.5 h -2.39 c -0.276,0 -0.5,0.224 -0.5,0.5 v 10.247 c 0,3.005 -1.117,5.509 -4.314,5.509 C 5.932,2.658 4.198,1.079 3.621,-0.809 3.467,-1.233 3.39,-1.811 3.39,-2.388 v -10.71 c 0,-0.276 -0.224,-0.5 -0.5,-0.5 H 0.5 c -0.276,0 -0.5,0.224 -0.5,0.5 z"
             style="fill:#404041;fill-opacity:1;fill-rule:nonzero;stroke:none"
             id="path19326-7-9"
             inkscape:connector-curvature="0" />
        </g>
        <g
           id="g19328-7-1"
           transform="translate(909.7612,86.7463)"
           style="fill:#404041;fill-opacity:1">
          <path
             d="m 0,0 c 0,0.424 -0.039,1.001 -0.154,1.425 -0.5,2.158 -2.349,3.929 -4.892,3.929 -3.505,0 -5.585,-3.081 -5.585,-7.203 0,-3.775 1.849,-6.895 5.508,-6.895 2.273,0 4.353,1.503 4.969,4.045 C -0.039,-4.237 0,-3.774 0,-3.235 Z m 2.89,16.294 c 0.276,0 0.5,-0.224 0.5,-0.501 V -6.24 c 0,-1.44 0.029,-3.053 0.113,-4.285 0.019,-0.288 -0.211,-0.53 -0.5,-0.53 H 0.978 c -0.267,0 -0.487,0.21 -0.5,0.477 L 0.347,-7.819 H 0.27 c -1.04,-2.081 -3.313,-3.66 -6.356,-3.66 -4.506,0 -7.973,3.814 -7.973,9.476 -0.039,6.202 3.813,10.016 8.359,10.016 2.85,0 4.776,-1.349 5.623,-2.851 H 0 v 10.631 c 0,0.277 0.224,0.501 0.5,0.501 z"
             style="fill:#404041;fill-opacity:1;fill-rule:nonzero;stroke:none"
             id="path19330-89-5"
             inkscape:connector-curvature="0" />
        </g>
      </g>
    </g>
    <g
       id="g19332-64-4"
       transform="matrix(1.3770857,0,0,-1.3770857,-890.5053,216.7365)">
      <g
         id="g19334-6-9">
        <g
           id="g19340-4-2">
          <g
             id="g19342-54-5">
            <path
               d="M 647.165,101.687 628.256,62.333 c -0.412,-0.858 0.213,-1.851 1.163,-1.851 v 0 h 23.659 c 0.497,0 0.948,0.284 1.164,0.732 v 0 l 7.56,15.713 c 0.178,0.367 0.17,0.795 -0.018,1.156 v 0 l -12.308,23.642 c -0.242,0.464 -0.694,0.695 -1.146,0.695 v 0 c -0.466,0 -0.931,-0.245 -1.165,-0.733"
               style="fill:url(#linearGradient4882);stroke:none"
               id="path19350-2-7"
               inkscape:connector-curvature="0" />
          </g>
        </g>
      </g>
    </g>
    <g
       id="g19352-0-4"
       transform="matrix(1.3770857,0,0,-1.3770857,-890.5053,216.7365)">
      <g
         id="g19354-9-9">
        <g
           id="g19360-7-9">
          <g
             id="g19362-75-4">
            <path
               d="M 717.557,101.725 705.248,78.083 c -0.187,-0.361 -0.194,-0.789 -0.018,-1.156 v 0 l 7.561,-15.713 c 0.215,-0.448 0.668,-0.732 1.164,-0.732 v 0 h 23.658 c 0.951,0 1.577,0.993 1.165,1.851 v 0 l -18.91,39.354 c -0.234,0.488 -0.699,0.733 -1.165,0.733 v 0 c -0.452,0 -0.903,-0.231 -1.146,-0.695"
               style="fill:url(#linearGradient4884);stroke:none"
               id="path19370-4-5"
               inkscape:connector-curvature="0" />
          </g>
        </g>
      </g>
    </g>
    <g
       id="g19372-4-9"
       transform="matrix(1.3770857,0,0,-1.3770857,-890.5053,216.7365)">
      <g
         id="g19374-6-3"
         clip-path="url(#clipPath19378-68-0)">
        <g
           id="g19380-5-5"
           transform="translate(721.7793,115.2375)">
          <path
             d="m 0,0 h -26.5 c -0.66,0 -1.271,-0.349 -1.607,-0.918 l -8.81,-14.919 c -0.74,-1.254 -2.567,-1.216 -3.254,0.068 l -20.814,38.89 c -0.325,0.607 -0.957,0.986 -1.646,0.986 h -27.31 c -1.453,0 -2.35,-1.586 -1.601,-2.83 l 51.355,-85.341 c 0.722,-1.2 2.457,-1.208 3.19,-0.017 L 1.164,-2.083 C 1.725,-1.173 1.069,0 0,0"
             style="fill:#3ab2c1;fill-opacity:1;fill-rule:nonzero;stroke:none"
             id="path19382-6-7"
             inkscape:connector-curvature="0" />
        </g>
      </g>
    </g>
    <g
       transform="translate(-485.73533,-859.21678)"
       aria-label="EFFICIENT PEOPLE"
       style="font-style:normal;font-variant:normal;font-weight:normal;font-stretch:normal;font-size:14.96782112px;font-family:'Myriad Pro';-inkscape-font-specification:'Myriad Pro';writing-mode:lr-tb;fill:#6d6e70;fill-opacity:1;fill-rule:nonzero;stroke:none;stroke-width:1.3770858"
       id="text19386-5-0">
      <path
         inkscape:connector-curvature="0"
         d="m 438.12213,1080.7284 h -3.88197 v -3.1559 h 4.10422 v -1.0816 h -5.39327 v 9.9864 h 5.61552 v -1.0816 h -4.32647 v -3.6005 h 3.88197 z"
         style="font-style:normal;font-variant:normal;font-weight:normal;font-stretch:normal;font-size:14.8166666px;line-height:24.20000076px;font-family:'Myriad Pro';-inkscape-font-specification:'Myriad Pro';fill:#6d6e70;fill-opacity:1;stroke-width:1.3770858"
         id="path6056" />
      <path
         inkscape:connector-curvature="0"
         d="m 447.06573,1086.4773 h 1.28905 v -4.5191 h 3.77825 v -1.0668 h -3.77825 v -3.3189 h 4.0894 v -1.0816 h -5.37845 z"
         style="font-style:normal;font-variant:normal;font-weight:normal;font-stretch:normal;font-size:14.8166666px;line-height:24.20000076px;font-family:'Myriad Pro';-inkscape-font-specification:'Myriad Pro';fill:#6d6e70;fill-opacity:1;stroke-width:1.3770858"
         id="path6058" />
      <path
         inkscape:connector-curvature="0"
         d="m 461.10553,1086.4773 h 1.28905 v -4.5191 h 3.77825 v -1.0668 h -3.77825 v -3.3189 h 4.0894 v -1.0816 h -5.37845 z"
         style="font-style:normal;font-variant:normal;font-weight:normal;font-stretch:normal;font-size:14.8166666px;line-height:24.20000076px;font-family:'Myriad Pro';-inkscape-font-specification:'Myriad Pro';fill:#6d6e70;fill-opacity:1;stroke-width:1.3770858"
         id="path6060" />
      <path
         inkscape:connector-curvature="0"
         d="m 475.14538,1076.4909 v 9.9864 h 1.28905 v -9.9864 z"
         style="font-style:normal;font-variant:normal;font-weight:normal;font-stretch:normal;font-size:14.8166666px;line-height:24.20000076px;font-family:'Myriad Pro';-inkscape-font-specification:'Myriad Pro';fill:#6d6e70;fill-opacity:1;stroke-width:1.3770858"
         id="path6062" />
      <path
         inkscape:connector-curvature="0"
         d="m 492.18497,1085.129 c -0.51858,0.2519 -1.31868,0.4148 -2.10397,0.4148 -2.42993,0 -3.83751,-1.5705 -3.83751,-4.0153 0,-2.6225 1.55575,-4.119 3.89678,-4.119 0.82973,0 1.52612,0.1778 2.01507,0.4149 l 0.31115,-1.052 c -0.34079,-0.1778 -1.12607,-0.4445 -2.37067,-0.4445 -3.09668,0 -5.21547,2.1188 -5.21547,5.2451 0,3.2745 2.11879,5.0525 4.93395,5.0525 1.21497,0 2.16324,-0.2371 2.63737,-0.4742 z"
         style="font-style:normal;font-variant:normal;font-weight:normal;font-stretch:normal;font-size:14.8166666px;line-height:24.20000076px;font-family:'Myriad Pro';-inkscape-font-specification:'Myriad Pro';fill:#6d6e70;fill-opacity:1;stroke-width:1.3770858"
         id="path6064" />
      <path
         inkscape:connector-curvature="0"
         d="m 500.90491,1076.4909 v 9.9864 h 1.28905 v -9.9864 z"
         style="font-style:normal;font-variant:normal;font-weight:normal;font-stretch:normal;font-size:14.8166666px;line-height:24.20000076px;font-family:'Myriad Pro';-inkscape-font-specification:'Myriad Pro';fill:#6d6e70;fill-opacity:1;stroke-width:1.3770858"
         id="path6066" />
      <path
         inkscape:connector-curvature="0"
         d="m 516.40374,1080.7284 h -3.88196 v -3.1559 h 4.10421 v -1.0816 h -5.39326 v 9.9864 h 5.61551 v -1.0816 h -4.32646 v -3.6005 h 3.88196 z"
         style="font-style:normal;font-variant:normal;font-weight:normal;font-stretch:normal;font-size:14.8166666px;line-height:24.20000076px;font-family:'Myriad Pro';-inkscape-font-specification:'Myriad Pro';fill:#6d6e70;fill-opacity:1;stroke-width:1.3770858"
         id="path6068" />
      <path
         inkscape:connector-curvature="0"
         d="m 526.56235,1086.4773 v -4.2672 c 0,-1.6595 -0.0296,-2.8596 -0.10372,-4.119 l 0.0444,-0.015 c 0.50377,1.0817 1.17052,2.2225 1.8669,3.3338 l 3.17077,5.0673 h 1.30386 v -9.9864 h -1.21496 v 4.1783 c 0,1.5557 0.0296,2.7707 0.14816,4.1042 l -0.0296,0.015 c -0.47413,-1.0224 -1.05198,-2.0743 -1.79282,-3.2449 l -3.2004,-5.0524 h -1.40758 v 9.9864 z"
         style="font-style:normal;font-variant:normal;font-weight:normal;font-stretch:normal;font-size:14.8166666px;line-height:24.20000076px;font-family:'Myriad Pro';-inkscape-font-specification:'Myriad Pro';fill:#6d6e70;fill-opacity:1;stroke-width:1.3770858"
         id="path6070" />
      <path
         inkscape:connector-curvature="0"
         d="m 543.84328,1086.4773 h 1.30387 v -8.89 h 3.05223 v -1.0964 h -7.39352 v 1.0964 h 3.03742 z"
         style="font-style:normal;font-variant:normal;font-weight:normal;font-stretch:normal;font-size:14.8166666px;line-height:24.20000076px;font-family:'Myriad Pro';-inkscape-font-specification:'Myriad Pro';fill:#6d6e70;fill-opacity:1;stroke-width:1.3770858"
         id="path6072" />
      <path
         inkscape:connector-curvature="0"
         d="m 566.0599,1086.4773 h 1.28905 v -4.0005 c 0.29634,0.074 0.65194,0.089 1.03717,0.089 1.25942,0 2.37067,-0.3704 3.05223,-1.0964 0.50377,-0.5186 0.77047,-1.2298 0.77047,-2.1336 0,-0.889 -0.32597,-1.6151 -0.87418,-2.0892 -0.59267,-0.5334 -1.52612,-0.8297 -2.80035,-0.8297 -1.03717,0 -1.85209,0.089 -2.47439,0.1926 z m 1.28905,-8.9345 c 0.22225,-0.059 0.65194,-0.1037 1.21497,-0.1037 1.4224,0 2.35585,0.6371 2.35585,1.9558 0,1.378 -0.94827,2.1336 -2.50402,2.1336 -0.42968,0 -0.78528,-0.03 -1.0668,-0.1037 z"
         style="font-style:normal;font-variant:normal;font-weight:normal;font-stretch:normal;font-size:14.8166666px;line-height:24.20000076px;font-family:'Myriad Pro';-inkscape-font-specification:'Myriad Pro';fill:#6d6e70;fill-opacity:1;stroke-width:1.3770858"
         id="path6074" />
      <path
         inkscape:connector-curvature="0"
         d="m 585.9443,1080.7284 h -3.88197 v -3.1559 h 4.10422 v -1.0816 h -5.39327 v 9.9864 h 5.61552 v -1.0816 h -4.32647 v -3.6005 h 3.88197 z"
         style="font-style:normal;font-variant:normal;font-weight:normal;font-stretch:normal;font-size:14.8166666px;line-height:24.20000076px;font-family:'Myriad Pro';-inkscape-font-specification:'Myriad Pro';fill:#6d6e70;fill-opacity:1;stroke-width:1.3770858"
         id="path6076" />
      <path
         inkscape:connector-curvature="0"
         d="m 598.9328,1076.3279 c -2.667,0 -4.63762,2.0743 -4.63762,5.2451 0,3.0226 1.85208,5.0673 4.48945,5.0673 2.54847,0 4.63762,-1.8225 4.63762,-5.2599 0,-2.9634 -1.76319,-5.0525 -4.48945,-5.0525 z m -0.0593,1.052 c 2.14842,0 3.18558,2.0743 3.18558,4.0597 0,2.267 -1.1557,4.1487 -3.2004,4.1487 -2.02988,0 -3.18558,-1.9114 -3.18558,-4.045 0,-2.1928 1.0668,-4.1634 3.2004,-4.1634 z"
         style="font-style:normal;font-variant:normal;font-weight:normal;font-stretch:normal;font-size:14.8166666px;line-height:24.20000076px;font-family:'Myriad Pro';-inkscape-font-specification:'Myriad Pro';fill:#6d6e70;fill-opacity:1;stroke-width:1.3770858"
         id="path6078" />
      <path
         inkscape:connector-curvature="0"
         d="m 611.9512,1086.4773 h 1.28905 v -4.0005 c 0.29633,0.074 0.65193,0.089 1.03717,0.089 1.25941,0 2.37066,-0.3704 3.05223,-1.0964 0.50377,-0.5186 0.77047,-1.2298 0.77047,-2.1336 0,-0.889 -0.32597,-1.6151 -0.87419,-2.0892 -0.59266,-0.5334 -1.52611,-0.8297 -2.80035,-0.8297 -1.03716,0 -1.85208,0.089 -2.47438,0.1926 z m 1.28905,-8.9345 c 0.22225,-0.059 0.65193,-0.1037 1.21497,-0.1037 1.4224,0 2.35585,0.6371 2.35585,1.9558 0,1.378 -0.94827,2.1336 -2.50402,2.1336 -0.42968,0 -0.78528,-0.03 -1.0668,-0.1037 z"
         style="font-style:normal;font-variant:normal;font-weight:normal;font-stretch:normal;font-size:14.8166666px;line-height:24.20000076px;font-family:'Myriad Pro';-inkscape-font-specification:'Myriad Pro';fill:#6d6e70;fill-opacity:1;stroke-width:1.3770858"
         id="path6080" />
      <path
         inkscape:connector-curvature="0"
         d="m 626.66446,1086.4773 h 5.55625 v -1.0816 h -4.2672 v -8.9048 h -1.28905 z"
         style="font-style:normal;font-variant:normal;font-weight:normal;font-stretch:normal;font-size:14.8166666px;line-height:24.20000076px;font-family:'Myriad Pro';-inkscape-font-specification:'Myriad Pro';fill:#6d6e70;fill-opacity:1;stroke-width:1.3770858"
         id="path6082" />
      <path
         inkscape:connector-curvature="0"
         d="m 645.6509,1080.7284 h -3.88196 v -3.1559 h 4.10421 v -1.0816 h -5.39326 v 9.9864 h 5.61551 v -1.0816 h -4.32646 v -3.6005 h 3.88196 z"
         style="font-style:normal;font-variant:normal;font-weight:normal;font-stretch:normal;font-size:14.8166666px;line-height:24.20000076px;font-family:'Myriad Pro';-inkscape-font-specification:'Myriad Pro';fill:#6d6e70;fill-opacity:1;stroke-width:1.3770858"
         id="path6084" />
    </g>
  </g>
</svg>
